# xmcd
#
# Track frame offsets:
#	150
#	19811
#	39785
#	65768
#	83597
#	98181
#	123025
#	143417
#	165291
#	188566
#	208393
#	225633
#	245071
#	264657
#	284631
#	310539
#
# Disc length: 4470 seconds
#
# Revision: 0
# Processed by: cddbd v1.5.2PL0 Copyright (c) Steve Scherf et al.
# Submitted via: audiograbber 1.83.01
#
DISCID=d2117410
DTITLE=Daniel Soul - A Voz da Alma
DYEAR=2015
DGENRE=Soul
TTITLE0=A Voz da Alma
TTITLE1=O Decreto
TTITLE2=Adorar na Provocação
TTITLE3=Para e Pense
TTITLE4=Somos Campeões
TTITLE5=Tudo Entregarei
TTITLE6=Eu Vou Tocar
TTITLE7=Tu És Uma Benção
TTITLE8=Pensando
TTITLE9=Deus Cuida de Mim
TTITLE10=Vencer Tentações
TTITLE11=Feliz é a Nação
TTITLE12=A Voz da Alma - PB
TTITLE13=O Decreto - PB
TTITLE14=Adorar na Provação - PB
TTITLE15=Tudo Entregarei - PB
EXTD=
EXTT0=
EXTT1=
EXTT2=
EXTT3=
EXTT4=
EXTT5=
EXTT6=
EXTT7=
EXTT8=
EXTT9=
EXTT10=
EXTT11=
EXTT12=
EXTT13=
EXTT14=
EXTT15=
PLAYORDER=
